<svg xmlns="http://www.w3.org/2000/svg" width="512" height="512"><g class="layer"><rect width="320" height="420" x="262" y="138" fill="teal" rx="25" ry="25" transform="translate(-152 -76)"/><rect width="320" height="420" x="252" y="124" fill="#d3d3d3" rx="25" ry="25" transform="translate(-152 -76)"/><rect width="300" height="400" x="243" y="112" fill="#f2f2f2" stroke="#000" stroke-width="20" rx="25" ry="25" transform="translate(-152 -76)"/><path fill="#c0d530" d="M117.32 255c0-22.25 17.29-40.28 38.63-40.28s38.63 18.03 38.63 40.28h-77.26zm167.39 0c0-22.25 17.29-40.28 38.63-40.28s38.63 18.04 38.63 40.28h-77.26zm-43.52 52.63c15.08-15.74 39.54-15.74 54.63 0 15.08 15.73 15.08 41.24 0 56.97l-54.63-56.97zm-2.05 0c-15.08-15.74-39.54-15.74-54.63 0-15.09 15.73-15.09 41.24 0 56.97l54.63-56.97zm26.25-111.71h-51.51v-57.47c0-14.83 11.53-26.86 25.75-26.86s25.75 12.02 25.75 26.86v57.47h.01z"/><circle cx="256" cy="277.2" r="170.25" fill="#717945" transform="matrix(.49766 0 0 .51898 112.24 105.234)"/><path fill="#5b603d" d="m198.954 224.6 40.686-24.497 40.686 24.496v48.993L239.64 298.09l-40.686-24.497z"/><path fill="none" stroke="#000" stroke-width="10" d="M157.5 215.5h4.13c13.13-26.58 22.25-36.92 52.88-50.5l-.5-32.5c8.25-28.67 45.75-27.08 50.25.25l1 32.5c29.38 10.21 41 24.42 52.13 49.38l1.63.88c23.42-2.25 41.83 15 42.5 39l-37.25.5c-2.54 23.83-8.33 37.42-23.38 55l-.88 1.5c7.67 16.67 12.33 39.08-4 51.5l-30.75-29.25c-15.67 4.42-31.83 6.33-52.25-.25l-29 30c-11.42-12.25-13.33-34-3.5-49.5l-.75-1.75c-12.25-13.5-22-33.5-24.75-56.25l-36.75-1c0-28.42 20.25-40.58 41-39.5l-1.76-.01z"/></g></svg>