<?xml version="1.0" standalone="no"?>
<!DOCTYPE svg PUBLIC "-//W3C//DTD SVG 20010904//EN"
 "http://www.w3.org/TR/2001/REC-SVG-20010904/DTD/svg10.dtd">
<svg version="1.0" xmlns="http://www.w3.org/2000/svg"
 width="512.000000pt" height="512.000000pt" viewBox="0 0 512.000000 512.000000"
 preserveAspectRatio="xMidYMid meet">
<g transform="translate(0.000000,512.000000) scale(0.100000,-0.100000)"
fill="#000000" stroke="none">
<path d="M360 2840 l0 -1360 55 0 55 0 0 -45 c0 -67 23 -113 64 -130 53 -22
1659 -22 1712 0 67 28 64 -22 64 1050 l0 965 65 0 65 0 0 -880 c0 -873 0 -880
20 -880 13 0 20 -7 20 -20 0 -13 7 -20 20 -20 13 0 20 -7 20 -20 0 -19 7 -20
240 -20 l240 0 0 -320 0 -320 55 0 55 0 0 -45 c0 -67 23 -113 64 -130 53 -22
1659 -22 1712 0 68 28 64 -57 64 1385 0 1442 4 1357 -64 1385 -20 8 -56 15
-81 15 l-45 0 0 55 0 55 -80 0 -80 0 0 -40 0 -40 40 0 40 0 0 -1280 0 -1280
-800 0 -800 0 0 1280 0 1280 40 0 40 0 0 40 0 40 -80 0 -80 0 0 -920 0 -920
-160 0 -160 0 0 880 c0 873 0 880 -20 880 -13 0 -20 7 -20 20 0 13 -7 20 -20
20 -13 0 -20 7 -20 20 0 19 -7 20 -145 20 l-145 0 0 215 c0 247 -6 276 -64
300 -20 8 -56 15 -81 15 l-45 0 0 55 0 55 -80 0 -80 0 0 -40 0 -40 40 0 40 0
0 -1280 0 -1280 -800 0 -800 0 0 1280 0 1280 40 0 40 0 0 40 0 40 -80 0 -80 0
0 -1360z"/>
<path d="M1160 3600 l0 -40 -40 0 -40 0 0 -40 0 -40 -40 0 -40 0 0 -40 0 -40
-40 0 -40 0 0 -40 0 -40 40 0 40 0 0 -80 0 -80 -40 0 -40 0 0 -40 0 -40 -40 0
-40 0 0 40 0 40 -40 0 -40 0 0 40 0 40 -40 0 -40 0 0 -40 0 -40 40 0 40 0 0
-80 0 -80 40 0 40 0 0 -40 0 -40 -40 0 -40 0 0 -40 0 -40 -40 0 -40 0 0 -40 0
-40 -40 0 -40 0 0 -40 0 -40 120 0 120 0 0 -40 0 -40 -80 0 -80 0 0 -40 0 -40
120 0 120 0 0 40 0 40 40 0 40 0 0 -80 0 -80 -40 0 -40 0 0 -40 0 -40 -80 0
-80 0 0 40 0 40 -40 0 -40 0 0 -40 0 -40 40 0 40 0 0 -40 0 -40 40 0 40 0 0
-40 0 -40 80 0 80 0 0 40 0 40 40 0 40 0 0 40 0 40 40 0 40 0 0 40 0 40 80 0
80 0 0 -40 0 -40 -40 0 -40 0 0 -40 0 -40 -40 0 -40 0 0 -40 0 -40 120 0 120
0 0 40 0 40 40 0 40 0 0 80 0 80 40 0 40 0 0 -80 0 -80 40 0 40 0 0 -40 0 -40
120 0 120 0 0 80 0 80 -80 0 -80 0 0 80 0 80 80 0 80 0 0 120 0 120 -40 0 -40
0 0 80 0 80 -40 0 -40 0 0 40 0 40 -40 0 -40 0 0 40 0 40 40 0 40 0 0 120 0
120 -80 0 -80 0 0 80 0 80 40 0 40 0 0 40 0 40 -40 0 -40 0 0 40 0 40 -40 0
-40 0 0 -80 0 -80 -80 0 -80 0 0 80 0 80 -80 0 -80 0 0 -40z m160 -240 l0 -40
40 0 40 0 0 -80 0 -80 40 0 40 0 0 -40 0 -40 -40 0 -40 0 0 -40 0 -40 80 0 80
0 0 -40 0 -40 -120 0 -120 0 0 -40 0 -40 -40 0 -40 0 0 40 0 40 40 0 40 0 0
80 0 80 40 0 40 0 0 40 0 40 -40 0 -40 0 0 40 0 40 -40 0 -40 0 0 -120 0 -120
-120 0 -120 0 0 40 0 40 40 0 40 0 0 80 0 80 40 0 40 0 0 80 0 80 80 0 80 0 0
-40z m240 -80 l0 -40 -40 0 -40 0 0 40 0 40 40 0 40 0 0 -40z m80 -160 l0 -40
-40 0 -40 0 0 40 0 40 40 0 40 0 0 -40z m-640 -240 l0 -40 -40 0 -40 0 0 -40
0 -40 40 0 40 0 0 -40 0 -40 -40 0 -40 0 0 40 0 40 -40 0 -40 0 0 40 0 40 40
0 40 0 0 40 0 40 40 0 40 0 0 -40z m160 0 l0 -40 -40 0 -40 0 0 40 0 40 40 0
40 0 0 -40z m400 -120 l0 -80 40 0 40 0 0 -40 0 -40 40 0 40 0 0 -40 0 -40
-40 0 -40 0 0 40 0 40 -80 0 -80 0 0 80 0 80 -40 0 -40 0 0 40 0 40 80 0 80 0
0 -80z m-320 -40 l0 -40 40 0 40 0 0 -40 0 -40 -80 0 -80 0 0 40 0 40 -40 0
-40 0 0 40 0 40 80 0 80 0 0 -40z"/>
<path d="M3800 2960 l0 -40 -40 0 -40 0 0 -40 0 -40 -40 0 -40 0 0 -40 0 -40
-40 0 -40 0 0 -40 0 -40 40 0 40 0 0 -80 0 -80 -40 0 -40 0 0 -40 0 -40 -40 0
-40 0 0 40 0 40 -40 0 -40 0 0 40 0 40 -40 0 -40 0 0 -40 0 -40 40 0 40 0 0
-80 0 -80 40 0 40 0 0 -40 0 -40 -40 0 -40 0 0 -40 0 -40 -40 0 -40 0 0 -40 0
-40 -40 0 -40 0 0 -40 0 -40 120 0 120 0 0 -40 0 -40 -80 0 -80 0 0 -40 0 -40
120 0 120 0 0 40 0 40 40 0 40 0 0 -80 0 -80 -40 0 -40 0 0 -40 0 -40 -80 0
-80 0 0 40 0 40 -40 0 -40 0 0 -40 0 -40 40 0 40 0 0 -40 0 -40 40 0 40 0 0
-40 0 -40 80 0 80 0 0 40 0 40 40 0 40 0 0 40 0 40 40 0 40 0 0 40 0 40 80 0
80 0 0 -40 0 -40 -40 0 -40 0 0 -40 0 -40 -40 0 -40 0 0 -40 0 -40 120 0 120
0 0 40 0 40 40 0 40 0 0 80 0 80 40 0 40 0 0 -80 0 -80 40 0 40 0 0 -40 0 -40
120 0 120 0 0 80 0 80 -80 0 -80 0 0 80 0 80 80 0 80 0 0 120 0 120 -40 0 -40
0 0 80 0 80 -40 0 -40 0 0 40 0 40 -40 0 -40 0 0 40 0 40 40 0 40 0 0 120 0
120 -80 0 -80 0 0 80 0 80 40 0 40 0 0 40 0 40 -40 0 -40 0 0 40 0 40 -40 0
-40 0 0 -80 0 -80 -80 0 -80 0 0 80 0 80 -80 0 -80 0 0 -40z m160 -240 l0 -40
40 0 40 0 0 -80 0 -80 40 0 40 0 0 -40 0 -40 -40 0 -40 0 0 -40 0 -40 80 0 80
0 0 -40 0 -40 -120 0 -120 0 0 -40 0 -40 -40 0 -40 0 0 40 0 40 40 0 40 0 0
80 0 80 40 0 40 0 0 40 0 40 -40 0 -40 0 0 40 0 40 -40 0 -40 0 0 -120 0 -120
-120 0 -120 0 0 40 0 40 40 0 40 0 0 80 0 80 40 0 40 0 0 80 0 80 80 0 80 0 0
-40z m240 -80 l0 -40 -40 0 -40 0 0 40 0 40 40 0 40 0 0 -40z m80 -160 l0 -40
-40 0 -40 0 0 40 0 40 40 0 40 0 0 -40z m-640 -240 l0 -40 -40 0 -40 0 0 -40
0 -40 40 0 40 0 0 -40 0 -40 -40 0 -40 0 0 40 0 40 -40 0 -40 0 0 40 0 40 40
0 40 0 0 40 0 40 40 0 40 0 0 -40z m160 0 l0 -40 -40 0 -40 0 0 40 0 40 40 0
40 0 0 -40z m400 -120 l0 -80 40 0 40 0 0 -40 0 -40 40 0 40 0 0 -40 0 -40
-40 0 -40 0 0 40 0 40 -80 0 -80 0 0 80 0 80 -40 0 -40 0 0 40 0 40 80 0 80 0
0 -80z m-320 -40 l0 -40 40 0 40 0 0 -40 0 -40 -80 0 -80 0 0 40 0 40 -40 0
-40 0 0 40 0 40 80 0 80 0 0 -40z"/>
</g>
</svg>
